<?xml version="1.0" standalone="no"?>
<!DOCTYPE svg PUBLIC "-//W3C//DTD SVG 20010904//EN"
 "http://www.w3.org/TR/2001/REC-SVG-20010904/DTD/svg10.dtd">
<svg version="1.0" xmlns="http://www.w3.org/2000/svg"
 width="700.000000pt" height="700.000000pt" viewBox="0 0 700.000000 700.000000"
 preserveAspectRatio="xMidYMid meet">
<metadata>
Created by potrace 1.14, written by Peter Selinger 2001-2017
</metadata>
<g transform="translate(0.000000,700.000000) scale(0.100000,-0.100000)"
fill="#000000" stroke="none">
<path d="M3278 6995 c-2 -1 -37 -5 -78 -9 -154 -14 -174 -17 -182 -29 -5 -7
-8 -8 -8 -1 0 10 -36 5 -235 -32 -154 -28 -539 -149 -529 -166 3 -4 -1 -5 -9
-3 -7 3 -31 -2 -53 -12 -21 -9 -41 -17 -44 -18 -110 -32 -653 -338 -668 -377
-2 -4 -10 -8 -17 -8 -7 0 -15 -3 -17 -8 -1 -4 -27 -25 -55 -46 -29 -21 -53
-42 -53 -47 0 -5 -6 -9 -13 -9 -6 0 -32 -19 -57 -41 -25 -23 -58 -52 -75 -66
-46 -38 -203 -192 -273 -268 -71 -77 -212 -249 -212 -258 0 -3 -11 -18 -25
-33 -14 -15 -25 -33 -25 -40 0 -8 -4 -14 -9 -14 -10 0 -108 -149 -181 -275
-65 -112 -156 -301 -205 -425 -20 -52 -41 -104 -46 -115 -13 -33 -47 -136 -64
-200 -10 -33 -21 -71 -26 -85 -5 -14 -11 -39 -14 -57 -3 -18 -9 -42 -14 -55
-4 -13 -8 -37 -7 -55 0 -17 -2 -29 -5 -27 -3 2 -12 -29 -19 -69 -7 -40 -14
-81 -16 -92 -8 -41 -23 -170 -33 -290 -8 -91 -6 -525 2 -580 3 -16 8 -57 12
-90 6 -60 8 -72 20 -155 23 -157 120 -540 156 -610 4 -8 28 -70 54 -137 46
-121 193 -423 221 -454 8 -8 14 -19 14 -23 0 -23 269 -404 334 -472 6 -6 36
-40 67 -75 124 -141 276 -284 439 -414 92 -74 370 -265 386 -265 4 0 15 -6 23
-14 9 -7 81 -47 161 -88 306 -156 609 -262 930 -323 96 -18 123 -23 179 -31
25 -3 57 -8 71 -10 165 -26 681 -25 842 1 13 2 46 6 73 10 28 3 57 8 65 10 8
2 31 6 50 9 209 33 458 104 693 197 1025 408 1817 1311 2087 2379 34 136 76
357 86 455 3 39 8 84 11 100 8 56 10 540 2 605 -4 36 -10 90 -13 120 -8 73
-12 103 -26 180 -6 36 -13 79 -16 95 -12 67 -75 306 -104 395 -118 358 -300
711 -515 999 -39 53 -78 103 -86 111 -8 9 -34 40 -59 70 -329 403 -846 780
-1345 980 -141 56 -149 59 -205 76 -30 8 -64 20 -75 25 -51 22 -369 97 -490
115 -27 4 -57 9 -65 10 -8 2 -42 6 -76 9 -33 4 -74 9 -90 11 -30 5 -541 13
-546 9z"/>
</g>
</svg>
