<svg width="639" height="639" viewBox="0 0 639 639" fill="none" xmlns="http://www.w3.org/2000/svg">
<circle cx="319.5" cy="319.5" r="319.5" fill="url(#paint0_linear_14_27)"/>
<path d="M143.03 233.706C143.03 231.895 142.746 230.297 142.178 228.911C141.645 227.491 140.686 226.212 139.301 225.075C137.951 223.939 136.069 222.856 133.654 221.826C131.274 220.796 128.255 219.748 124.597 218.682C120.761 217.546 117.298 216.285 114.208 214.9C111.118 213.479 108.472 211.863 106.27 210.052C104.068 208.24 102.381 206.162 101.209 203.818C100.037 201.474 99.4507 198.793 99.4507 195.774C99.4507 192.755 100.072 189.967 101.315 187.409C102.558 184.852 104.334 182.632 106.643 180.75C108.987 178.832 111.775 177.34 115.007 176.275C118.239 175.209 121.844 174.676 125.822 174.676C131.647 174.676 136.584 175.795 140.633 178.033C144.718 180.235 147.825 183.13 149.956 186.717C152.087 190.268 153.153 194.069 153.153 198.118H142.924C142.924 195.205 142.302 192.63 141.059 190.393C139.816 188.12 137.934 186.344 135.412 185.065C132.89 183.751 129.694 183.094 125.822 183.094C122.164 183.094 119.145 183.645 116.765 184.746C114.386 185.847 112.61 187.338 111.438 189.221C110.301 191.103 109.733 193.252 109.733 195.667C109.733 197.301 110.07 198.793 110.745 200.142C111.456 201.456 112.539 202.682 113.995 203.818C115.487 204.955 117.369 206.003 119.642 206.962C121.951 207.921 124.704 208.844 127.9 209.732C132.304 210.975 136.105 212.36 139.301 213.888C142.498 215.415 145.126 217.137 147.186 219.055C149.281 220.938 150.827 223.086 151.821 225.502C152.851 227.881 153.366 230.581 153.366 233.6C153.366 236.761 152.727 239.62 151.448 242.177C150.169 244.734 148.34 246.919 145.961 248.73C143.581 250.541 140.722 251.944 137.383 252.939C134.08 253.898 130.386 254.377 126.302 254.377C122.715 254.377 119.181 253.88 115.7 252.886C112.255 251.891 109.111 250.399 106.27 248.41C103.464 246.421 101.209 243.971 99.504 241.058C97.8347 238.11 97 234.701 97 230.829H107.229C107.229 233.493 107.744 235.784 108.774 237.702C109.804 239.584 111.207 241.147 112.983 242.39C114.794 243.633 116.836 244.557 119.11 245.161C121.418 245.729 123.816 246.013 126.302 246.013C129.889 246.013 132.926 245.516 135.412 244.521C137.898 243.527 139.781 242.106 141.059 240.259C142.373 238.412 143.03 236.228 143.03 233.706Z" fill="#262626"/>
<path d="M177.5 175.742V253.312H167.218V175.742H177.5Z" fill="#262626"/>
<path d="M243.243 244.947V253.312H204.458V244.947H243.243ZM206.482 175.742V253.312H196.2V175.742H206.482Z" fill="#262626"/>
<path d="M284.798 182.615L259.119 253.312H248.623L278.192 175.742H284.958L284.798 182.615ZM306.321 253.312L280.589 182.615L280.429 175.742H287.195L316.87 253.312H306.321ZM304.989 224.596V233.014H261.41V224.596H304.989Z" fill="#262626"/>
<path d="M359.81 230.669V175.742H370.039V230.669C370.039 235.784 368.992 240.099 366.896 243.616C364.801 247.132 361.906 249.813 358.212 251.66C354.554 253.472 350.345 254.377 345.586 254.377C340.826 254.377 336.6 253.56 332.906 251.927C329.212 250.293 326.318 247.807 324.222 244.468C322.127 241.129 321.079 236.92 321.079 231.842H331.361C331.361 235.109 331.965 237.791 333.172 239.886C334.38 241.982 336.049 243.527 338.18 244.521C340.347 245.516 342.815 246.013 345.586 246.013C348.285 246.013 350.7 245.445 352.831 244.308C354.998 243.136 356.703 241.413 357.946 239.14C359.189 236.832 359.81 234.008 359.81 230.669Z" fill="#262626"/>
<path d="M431.84 175.742H442.069V228.219C442.069 234.044 440.772 238.892 438.179 242.763C435.587 246.634 432.141 249.547 427.844 251.5C423.582 253.418 418.947 254.377 413.939 254.377C408.682 254.377 403.923 253.418 399.661 251.5C395.434 249.547 392.078 246.634 389.592 242.763C387.141 238.892 385.916 234.044 385.916 228.219V175.742H396.091V228.219C396.091 232.268 396.837 235.606 398.329 238.235C399.821 240.863 401.898 242.816 404.562 244.095C407.262 245.374 410.387 246.013 413.939 246.013C417.526 246.013 420.652 245.374 423.315 244.095C426.015 242.816 428.11 240.863 429.602 238.235C431.094 235.606 431.84 232.268 431.84 228.219V175.742Z" fill="#262626"/>
<circle cx="499.364" cy="213.636" r="44.6356" fill="white"/>
<path d="M502.032 242.474C498.019 242.474 494.378 241.799 491.111 240.45C487.879 239.065 485.09 237.129 482.746 234.643C480.438 232.157 478.662 229.209 477.419 225.799C476.176 222.389 475.554 218.66 475.554 214.611V212.373C475.554 207.685 476.247 203.512 477.632 199.854C479.017 196.16 480.899 193.034 483.279 190.477C485.659 187.92 488.358 185.984 491.377 184.67C494.396 183.356 497.521 182.699 500.754 182.699C504.874 182.699 508.425 183.409 511.409 184.83C514.428 186.25 516.896 188.239 518.814 190.797C520.732 193.318 522.153 196.302 523.076 199.747C524 203.157 524.461 206.886 524.461 210.935V215.357H440.842V207.312H514.605V206.566C514.463 204.009 513.93 201.523 513.007 199.108C512.119 196.692 510.698 194.704 508.745 193.141C506.791 191.578 504.128 190.797 500.754 190.797C498.516 190.797 496.456 191.276 494.574 192.235C492.691 193.159 491.075 194.544 489.725 196.391C488.376 198.237 487.328 200.493 486.582 203.157C485.836 205.82 485.463 208.893 485.463 212.373V214.611C485.463 217.346 485.836 219.921 486.582 222.336C487.364 224.716 488.482 226.811 489.939 228.623C491.43 230.434 493.224 231.855 495.319 232.885C497.45 233.915 499.866 234.43 502.565 234.43C506.046 234.43 508.994 233.719 511.409 232.299C513.824 230.878 515.937 228.978 517.749 226.598L523.715 231.34C522.472 233.222 520.892 235.016 518.974 236.721C517.056 238.425 514.694 239.811 511.888 240.876C509.118 241.942 505.833 242.474 502.032 242.474Z" fill="#262626"/>
<path d="M116.334 302.728C116.334 302.155 116.167 301.637 115.835 301.175C115.502 300.713 114.882 300.287 113.976 299.899C113.088 299.492 111.803 299.122 110.12 298.789C108.604 298.457 107.189 298.041 105.876 297.541C104.582 297.023 103.454 296.404 102.492 295.683C101.549 294.962 100.809 294.111 100.273 293.131C99.7369 292.132 99.4688 290.995 99.4688 289.719C99.4688 288.461 99.7369 287.278 100.273 286.168C100.828 285.059 101.614 284.079 102.631 283.228C103.667 282.359 104.924 281.684 106.403 281.203C107.901 280.704 109.584 280.454 111.452 280.454C114.059 280.454 116.297 280.87 118.165 281.702C120.051 282.535 121.493 283.681 122.492 285.142C123.509 286.584 124.018 288.23 124.018 290.08H116.029C116.029 289.303 115.862 288.609 115.529 287.999C115.215 287.37 114.716 286.88 114.032 286.529C113.366 286.159 112.497 285.974 111.424 285.974C110.537 285.974 109.769 286.131 109.122 286.446C108.475 286.742 107.975 287.148 107.624 287.666C107.291 288.166 107.125 288.72 107.125 289.331C107.125 289.793 107.217 290.209 107.402 290.579C107.605 290.93 107.929 291.254 108.373 291.55C108.817 291.846 109.39 292.123 110.093 292.382C110.814 292.622 111.702 292.844 112.756 293.048C114.919 293.491 116.852 294.074 118.553 294.795C120.254 295.498 121.604 296.459 122.603 297.68C123.601 298.882 124.101 300.463 124.101 302.423C124.101 303.755 123.805 304.975 123.213 306.085C122.621 307.194 121.771 308.165 120.661 308.997C119.552 309.811 118.22 310.449 116.667 310.911C115.132 311.355 113.403 311.577 111.48 311.577C108.687 311.577 106.32 311.078 104.379 310.079C102.455 309.081 100.994 307.814 99.9958 306.279C99.0157 304.726 98.5256 303.135 98.5256 301.508H106.098C106.135 302.599 106.413 303.477 106.93 304.143C107.467 304.809 108.142 305.29 108.955 305.585C109.788 305.881 110.684 306.029 111.646 306.029C112.682 306.029 113.542 305.891 114.226 305.613C114.91 305.317 115.428 304.929 115.779 304.448C116.149 303.949 116.334 303.376 116.334 302.728Z" fill="#262626"/>
<path d="M157.304 311.577C154.974 311.577 152.884 311.207 151.035 310.467C149.186 309.709 147.614 308.664 146.319 307.333C145.043 306.002 144.063 304.457 143.379 302.701C142.695 300.925 142.353 299.039 142.353 297.042V295.932C142.353 293.658 142.676 291.577 143.324 289.691C143.971 287.805 144.896 286.168 146.098 284.781C147.318 283.394 148.797 282.331 150.536 281.591C152.274 280.833 154.234 280.454 156.416 280.454C158.543 280.454 160.429 280.806 162.075 281.508C163.721 282.211 165.099 283.21 166.208 284.504C167.336 285.798 168.187 287.352 168.76 289.164C169.333 290.958 169.62 292.955 169.62 295.156V298.484H145.765V293.159H161.77V292.548C161.77 291.439 161.567 290.449 161.16 289.58C160.771 288.693 160.18 287.99 159.384 287.472C158.589 286.954 157.572 286.695 156.333 286.695C155.279 286.695 154.373 286.927 153.615 287.389C152.857 287.851 152.237 288.498 151.756 289.331C151.294 290.163 150.943 291.143 150.702 292.271C150.48 293.38 150.369 294.601 150.369 295.932V297.042C150.369 298.244 150.536 299.353 150.869 300.371C151.22 301.388 151.71 302.266 152.339 303.006C152.986 303.745 153.763 304.319 154.669 304.726C155.593 305.132 156.638 305.336 157.803 305.336C159.246 305.336 160.586 305.058 161.825 304.504C163.083 303.93 164.165 303.07 165.071 301.924L168.954 306.14C168.326 307.046 167.466 307.916 166.375 308.748C165.302 309.58 164.008 310.264 162.491 310.8C160.975 311.318 159.246 311.577 157.304 311.577Z" fill="#262626"/>
<path d="M196.36 287.222V311.022H188.344V281.009H195.861L196.36 287.222ZM195.251 294.962H193.031C193.031 292.872 193.281 290.949 193.78 289.192C194.298 287.417 195.047 285.882 196.027 284.587C197.026 283.274 198.256 282.257 199.717 281.536C201.177 280.815 202.869 280.454 204.793 280.454C206.124 280.454 207.345 280.658 208.454 281.064C209.564 281.453 210.516 282.072 211.311 282.923C212.125 283.755 212.754 284.846 213.198 286.196C213.641 287.528 213.863 289.127 213.863 290.995V311.022H205.875V291.883C205.875 290.514 205.69 289.46 205.32 288.72C204.95 287.981 204.423 287.463 203.739 287.167C203.073 286.871 202.268 286.723 201.325 286.723C200.29 286.723 199.384 286.936 198.607 287.361C197.849 287.786 197.22 288.378 196.721 289.136C196.221 289.876 195.852 290.745 195.611 291.744C195.371 292.742 195.251 293.815 195.251 294.962ZM213.114 294.046L210.257 294.407C210.257 292.447 210.498 290.625 210.978 288.942C211.478 287.259 212.208 285.78 213.17 284.504C214.15 283.228 215.361 282.239 216.804 281.536C218.246 280.815 219.91 280.454 221.797 280.454C223.239 280.454 224.552 280.667 225.735 281.092C226.919 281.499 227.927 282.155 228.759 283.062C229.61 283.949 230.257 285.114 230.701 286.557C231.163 287.999 231.394 289.765 231.394 291.855V311.022H223.378V291.855C223.378 290.468 223.193 289.414 222.823 288.693C222.472 287.953 221.954 287.444 221.27 287.167C220.604 286.871 219.809 286.723 218.884 286.723C217.922 286.723 217.081 286.917 216.36 287.306C215.639 287.675 215.038 288.193 214.557 288.859C214.076 289.525 213.715 290.301 213.475 291.189C213.235 292.058 213.114 293.011 213.114 294.046Z" fill="#262626"/>
<path d="M265.596 311.577C263.266 311.577 261.176 311.207 259.327 310.467C257.478 309.709 255.906 308.664 254.611 307.333C253.335 306.002 252.355 304.457 251.671 302.701C250.987 300.925 250.645 299.039 250.645 297.042V295.932C250.645 293.658 250.968 291.577 251.616 289.691C252.263 287.805 253.188 286.168 254.39 284.781C255.61 283.394 257.089 282.331 258.828 281.591C260.566 280.833 262.526 280.454 264.708 280.454C266.835 280.454 268.721 280.806 270.367 281.508C272.013 282.211 273.391 283.21 274.5 284.504C275.628 285.798 276.479 287.352 277.052 289.164C277.625 290.958 277.912 292.955 277.912 295.156V298.484H254.057V293.159H270.062V292.548C270.062 291.439 269.859 290.449 269.452 289.58C269.063 288.693 268.472 287.99 267.676 287.472C266.881 286.954 265.864 286.695 264.625 286.695C263.571 286.695 262.665 286.927 261.907 287.389C261.149 287.851 260.529 288.498 260.048 289.331C259.586 290.163 259.235 291.143 258.994 292.271C258.772 293.38 258.661 294.601 258.661 295.932V297.042C258.661 298.244 258.828 299.353 259.161 300.371C259.512 301.388 260.002 302.266 260.631 303.006C261.278 303.745 262.055 304.319 262.961 304.726C263.885 305.132 264.93 305.336 266.095 305.336C267.538 305.336 268.878 305.058 270.117 304.504C271.375 303.93 272.457 303.07 273.363 301.924L277.246 306.14C276.618 307.046 275.758 307.916 274.667 308.748C273.594 309.58 272.3 310.264 270.783 310.8C269.267 311.318 267.538 311.577 265.596 311.577Z" fill="#262626"/>
<path d="M304.486 287.417V311.022H296.497V281.009H303.986L304.486 287.417ZM303.321 294.962H301.157C301.157 292.742 301.444 290.745 302.017 288.97C302.59 287.176 303.395 285.651 304.43 284.393C305.466 283.117 306.696 282.146 308.119 281.48C309.562 280.796 311.171 280.454 312.946 280.454C314.351 280.454 315.637 280.658 316.802 281.064C317.967 281.471 318.965 282.118 319.797 283.006C320.648 283.894 321.295 285.068 321.739 286.529C322.202 287.99 322.433 289.774 322.433 291.883V311.022H314.388V291.855C314.388 290.523 314.204 289.488 313.834 288.748C313.464 288.008 312.918 287.491 312.197 287.195C311.494 286.88 310.625 286.723 309.59 286.723C308.517 286.723 307.583 286.936 306.788 287.361C306.011 287.786 305.364 288.378 304.846 289.136C304.347 289.876 303.968 290.745 303.709 291.744C303.45 292.742 303.321 293.815 303.321 294.962Z" fill="#262626"/>
<path d="M371.059 268.416H379.047V304.143L378.243 311.022H371.059V268.416ZM398.048 295.71V296.293C398.048 298.531 397.808 300.583 397.327 302.451C396.865 304.319 396.144 305.937 395.164 307.305C394.184 308.655 392.963 309.709 391.502 310.467C390.06 311.207 388.358 311.577 386.398 311.577C384.567 311.577 382.977 311.207 381.627 310.467C380.296 309.728 379.177 308.683 378.271 307.333C377.365 305.983 376.634 304.402 376.079 302.59C375.525 300.777 375.109 298.799 374.831 296.654V295.378C375.109 293.232 375.525 291.254 376.079 289.442C376.634 287.629 377.365 286.048 378.271 284.698C379.177 283.348 380.296 282.303 381.627 281.564C382.959 280.824 384.53 280.454 386.343 280.454C388.321 280.454 390.041 280.833 391.502 281.591C392.982 282.331 394.202 283.385 395.164 284.754C396.144 286.104 396.865 287.712 397.327 289.58C397.808 291.429 398.048 293.473 398.048 295.71ZM390.06 296.293V295.71C390.06 294.49 389.967 293.343 389.782 292.271C389.616 291.18 389.32 290.227 388.895 289.414C388.469 288.582 387.887 287.925 387.147 287.444C386.426 286.964 385.492 286.723 384.346 286.723C383.254 286.723 382.33 286.908 381.572 287.278C380.813 287.648 380.185 288.166 379.685 288.831C379.205 289.497 378.844 290.292 378.604 291.217C378.363 292.123 378.215 293.122 378.16 294.213V297.846C378.215 299.307 378.456 300.602 378.881 301.73C379.325 302.839 379.991 303.718 380.878 304.365C381.784 304.994 382.959 305.308 384.401 305.308C385.529 305.308 386.463 305.086 387.203 304.642C387.942 304.199 388.516 303.57 388.922 302.756C389.348 301.942 389.644 300.99 389.81 299.899C389.976 298.789 390.06 297.587 390.06 296.293Z" fill="#262626"/>
<path d="M431.03 311.577C428.7 311.577 426.61 311.207 424.761 310.467C422.912 309.709 421.34 308.664 420.045 307.333C418.769 306.002 417.789 304.457 417.105 302.701C416.421 300.925 416.079 299.039 416.079 297.042V295.932C416.079 293.658 416.402 291.577 417.049 289.691C417.697 287.805 418.621 286.168 419.823 284.781C421.044 283.394 422.523 282.331 424.262 281.591C426 280.833 427.96 280.454 430.142 280.454C432.269 280.454 434.155 280.806 435.801 281.508C437.447 282.211 438.824 283.21 439.934 284.504C441.062 285.798 441.913 287.352 442.486 289.164C443.059 290.958 443.346 292.955 443.346 295.156V298.484H419.491V293.159H435.496V292.548C435.496 291.439 435.292 290.449 434.885 289.58C434.497 288.693 433.905 287.99 433.11 287.472C432.315 286.954 431.298 286.695 430.059 286.695C429.005 286.695 428.099 286.927 427.341 287.389C426.582 287.851 425.963 288.498 425.482 289.331C425.02 290.163 424.668 291.143 424.428 292.271C424.206 293.38 424.095 294.601 424.095 295.932V297.042C424.095 298.244 424.262 299.353 424.594 300.371C424.946 301.388 425.436 302.266 426.065 303.006C426.712 303.745 427.489 304.319 428.395 304.726C429.319 305.132 430.364 305.336 431.529 305.336C432.972 305.336 434.312 305.058 435.551 304.504C436.809 303.93 437.891 303.07 438.797 301.924L442.68 306.14C442.051 307.046 441.191 307.916 440.1 308.748C439.028 309.58 437.733 310.264 436.217 310.8C434.701 311.318 432.972 311.577 431.03 311.577Z" fill="#262626"/>
<path d="M470.086 268.388V311.022H462.097V268.388H470.086ZM489.004 281.009L475.967 295.877L468.976 302.95L466.064 297.181L471.612 290.135L479.406 281.009H489.004ZM480.71 311.022L471.833 297.153L477.353 292.326L489.919 311.022H480.71Z" fill="#262626"/>
<path d="M524.398 303.838V281.009H532.387V311.022H524.87L524.398 303.838ZM525.286 297.68L527.644 297.624C527.644 299.622 527.413 301.48 526.95 303.2C526.488 304.901 525.795 306.381 524.87 307.638C523.945 308.877 522.78 309.848 521.375 310.551C519.969 311.235 518.314 311.577 516.41 311.577C514.949 311.577 513.599 311.374 512.36 310.967C511.139 310.541 510.085 309.885 509.198 308.997C508.328 308.091 507.644 306.935 507.145 305.53C506.664 304.106 506.424 302.396 506.424 300.398V281.009H514.412V300.454C514.412 301.341 514.514 302.09 514.718 302.701C514.939 303.311 515.245 303.81 515.633 304.199C516.021 304.587 516.474 304.864 516.992 305.031C517.528 305.197 518.12 305.28 518.767 305.28C520.413 305.28 521.708 304.947 522.651 304.282C523.612 303.616 524.287 302.71 524.676 301.563C525.083 300.398 525.286 299.104 525.286 297.68Z" fill="#262626"/>
<path d="M159.912 373.453C159.912 372.756 159.803 372.141 159.584 371.607C159.379 371.061 159.01 370.568 158.477 370.131C157.957 369.693 157.233 369.276 156.303 368.88C155.387 368.483 154.225 368.08 152.817 367.67C151.34 367.232 150.007 366.747 148.818 366.214C147.628 365.667 146.61 365.045 145.762 364.348C144.914 363.65 144.265 362.851 143.814 361.948C143.363 361.046 143.137 360.014 143.137 358.852C143.137 357.689 143.376 356.616 143.855 355.632C144.333 354.647 145.017 353.793 145.906 353.068C146.808 352.33 147.881 351.756 149.125 351.346C150.369 350.936 151.757 350.73 153.288 350.73C155.531 350.73 157.431 351.161 158.989 352.022C160.562 352.87 161.758 353.984 162.578 355.365C163.399 356.732 163.809 358.195 163.809 359.754H159.871C159.871 358.633 159.632 357.642 159.154 356.78C158.675 355.905 157.95 355.222 156.98 354.729C156.009 354.224 154.779 353.971 153.288 353.971C151.88 353.971 150.718 354.183 149.802 354.606C148.886 355.03 148.202 355.604 147.751 356.329C147.314 357.054 147.095 357.881 147.095 358.811C147.095 359.439 147.225 360.014 147.485 360.533C147.758 361.039 148.175 361.511 148.736 361.948C149.31 362.386 150.034 362.789 150.909 363.158C151.798 363.527 152.858 363.883 154.088 364.225C155.783 364.703 157.246 365.236 158.477 365.824C159.707 366.412 160.719 367.075 161.512 367.813C162.319 368.538 162.913 369.365 163.296 370.295C163.693 371.211 163.891 372.25 163.891 373.412C163.891 374.629 163.645 375.729 163.153 376.714C162.66 377.698 161.956 378.539 161.04 379.236C160.124 379.934 159.024 380.474 157.739 380.856C156.467 381.226 155.045 381.41 153.473 381.41C152.092 381.41 150.732 381.219 149.392 380.836C148.066 380.453 146.856 379.879 145.762 379.113C144.682 378.348 143.814 377.404 143.157 376.283C142.515 375.148 142.194 373.836 142.194 372.346H146.131C146.131 373.371 146.329 374.253 146.726 374.991C147.122 375.716 147.662 376.317 148.346 376.796C149.043 377.274 149.829 377.63 150.704 377.862C151.593 378.081 152.516 378.19 153.473 378.19C154.854 378.19 156.023 377.999 156.98 377.616C157.937 377.233 158.661 376.687 159.154 375.976C159.659 375.265 159.912 374.424 159.912 373.453Z" fill="white"/>
<path d="M174.231 351.141V381H170.273V351.141H174.231Z" fill="white"/>
<path d="M198.393 373.453C198.393 372.756 198.284 372.141 198.065 371.607C197.86 371.061 197.491 370.568 196.958 370.131C196.438 369.693 195.714 369.276 194.784 368.88C193.868 368.483 192.706 368.08 191.297 367.67C189.821 367.232 188.488 366.747 187.298 366.214C186.109 365.667 185.09 365.045 184.243 364.348C183.395 363.65 182.746 362.851 182.295 361.948C181.843 361.046 181.618 360.014 181.618 358.852C181.618 357.689 181.857 356.616 182.336 355.632C182.814 354.647 183.498 353.793 184.386 353.068C185.289 352.33 186.362 351.756 187.606 351.346C188.85 350.936 190.238 350.73 191.769 350.73C194.011 350.73 195.912 351.161 197.47 352.022C199.043 352.87 200.239 353.984 201.059 355.365C201.88 356.732 202.29 358.195 202.29 359.754H198.352C198.352 358.633 198.113 357.642 197.634 356.78C197.156 355.905 196.431 355.222 195.461 354.729C194.49 354.224 193.259 353.971 191.769 353.971C190.361 353.971 189.199 354.183 188.283 354.606C187.367 355.03 186.683 355.604 186.232 356.329C185.795 357.054 185.576 357.881 185.576 358.811C185.576 359.439 185.706 360.014 185.965 360.533C186.239 361.039 186.656 361.511 187.216 361.948C187.791 362.386 188.515 362.789 189.39 363.158C190.279 363.527 191.339 363.883 192.569 364.225C194.264 364.703 195.727 365.236 196.958 365.824C198.188 366.412 199.2 367.075 199.993 367.813C200.799 368.538 201.394 369.365 201.777 370.295C202.173 371.211 202.372 372.25 202.372 373.412C202.372 374.629 202.126 375.729 201.633 376.714C201.141 377.698 200.437 378.539 199.521 379.236C198.605 379.934 197.505 380.474 196.219 380.856C194.948 381.226 193.526 381.41 191.954 381.41C190.573 381.41 189.213 381.219 187.873 380.836C186.547 380.453 185.337 379.879 184.243 379.113C183.163 378.348 182.295 377.404 181.638 376.283C180.996 375.148 180.674 373.836 180.674 372.346H184.612C184.612 373.371 184.81 374.253 185.207 374.991C185.603 375.716 186.143 376.317 186.827 376.796C187.524 377.274 188.31 377.63 189.185 377.862C190.074 378.081 190.997 378.19 191.954 378.19C193.335 378.19 194.504 377.999 195.461 377.616C196.418 377.233 197.142 376.687 197.634 375.976C198.14 375.265 198.393 374.424 198.393 373.453Z" fill="white"/>
<path d="M219.5 351.141V381H215.603V351.141H219.5ZM229.098 351.141V354.381H206.026V351.141H229.098Z" fill="white"/>
<path d="M253.547 377.78V381H237.735V377.78H253.547ZM238.535 351.141V381H234.577V351.141H238.535ZM251.455 363.979V367.198H237.735V363.979H251.455ZM253.342 351.141V354.381H237.735V351.141H253.342Z" fill="white"/>
<path d="M260.749 351.141H264.584L274.366 375.483L284.128 351.141H287.984L275.843 381H272.849L260.749 351.141ZM259.498 351.141H262.882L263.436 369.352V381H259.498V351.141ZM285.83 351.141H289.214V381H285.277V369.352L285.83 351.141Z" fill="white"/>
<path d="M326.793 377.78V381H311.863V377.78H326.793ZM312.642 351.141V381H308.684V351.141H312.642Z" fill="white"/>
<path d="M343.839 353.786L333.954 381H329.914L341.296 351.141H343.9L343.839 353.786ZM352.124 381L342.219 353.786L342.157 351.141H344.762L356.184 381H352.124ZM351.611 369.946V373.187H334.836V369.946H351.611Z" fill="white"/>
<path d="M360.68 351.141L368.432 366.132L376.204 351.141H380.695L370.4 369.844V381H366.442V369.844L356.147 351.141H360.68Z" fill="white"/>
<path d="M394.706 353.786L384.822 381H380.781L392.163 351.141H394.768L394.706 353.786ZM402.991 381L393.086 353.786L393.025 351.141H395.629L407.052 381H402.991ZM402.479 369.946V373.187H385.703V369.946H402.479Z" fill="white"/>
<path d="M435.07 351.141V381H431.091L416.059 357.97V381H412.101V351.141H416.059L431.153 374.232V351.141H435.07Z" fill="white"/>
<path d="M454.556 353.786L444.672 381H440.632L452.013 351.141H454.618L454.556 353.786ZM462.841 381L452.936 353.786L452.875 351.141H455.479L466.902 381H462.841ZM462.329 369.946V373.187H445.553V369.946H462.329Z" fill="white"/>
<path d="M494.92 351.141V381H490.941L475.909 357.97V381H471.951V351.141H475.909L491.003 374.232V351.141H494.92Z" fill="white"/>
<path d="M77.5201 418.29H69.5426V415.07H77.5201C79.0651 415.07 80.316 414.824 81.2731 414.332C82.2301 413.84 82.9274 413.156 83.3649 412.281C83.816 411.406 84.0416 410.408 84.0416 409.287C84.0416 408.262 83.816 407.298 83.3649 406.396C82.9274 405.493 82.2301 404.769 81.2731 404.222C80.316 403.661 79.0651 403.381 77.5201 403.381H70.4655V430H66.5074V400.141H77.5201C79.776 400.141 81.6832 400.53 83.2418 401.31C84.8004 402.089 85.983 403.169 86.7897 404.55C87.5963 405.917 87.9996 407.482 87.9996 409.246C87.9996 411.16 87.5963 412.794 86.7897 414.147C85.983 415.501 84.8004 416.533 83.2418 417.244C81.6832 417.941 79.776 418.29 77.5201 418.29Z" fill="white"/>
<path d="M113.023 426.78V430H97.2117V426.78H113.023ZM98.0115 400.141V430H94.0535V400.141H98.0115ZM110.931 412.979V416.198H97.2117V412.979H110.931ZM112.818 400.141V403.381H97.2117V400.141H112.818Z" fill="white"/>
<path d="M141.943 400.141V430H137.965L122.933 406.97V430H118.975V400.141H122.933L138.026 423.232V400.141H141.943Z" fill="white"/>
<path d="M162.537 421.284V400.141H166.475V421.284C166.475 423.253 166.072 424.914 165.265 426.268C164.458 427.621 163.344 428.653 161.922 429.364C160.514 430.062 158.894 430.41 157.062 430.41C155.23 430.41 153.603 430.096 152.181 429.467C150.759 428.838 149.645 427.881 148.838 426.596C148.031 425.311 147.628 423.69 147.628 421.735H151.586C151.586 422.993 151.819 424.025 152.283 424.832C152.748 425.639 153.391 426.233 154.211 426.616C155.045 426.999 155.995 427.19 157.062 427.19C158.101 427.19 159.03 426.972 159.851 426.534C160.685 426.083 161.341 425.42 161.82 424.545C162.298 423.656 162.537 422.569 162.537 421.284Z" fill="white"/>
<path d="M191.314 400.141H195.251V420.341C195.251 422.583 194.752 424.449 193.754 425.939C192.756 427.43 191.43 428.551 189.776 429.303C188.135 430.041 186.351 430.41 184.423 430.41C182.4 430.41 180.568 430.041 178.927 429.303C177.3 428.551 176.008 427.43 175.051 425.939C174.108 424.449 173.636 422.583 173.636 420.341V400.141H177.553V420.341C177.553 421.899 177.84 423.185 178.414 424.196C178.989 425.208 179.788 425.96 180.814 426.452C181.853 426.944 183.056 427.19 184.423 427.19C185.804 427.19 187.007 426.944 188.033 426.452C189.072 425.96 189.878 425.208 190.453 424.196C191.027 423.185 191.314 421.899 191.314 420.341V400.141Z" fill="white"/>
<path d="M213.118 402.786L203.233 430H199.193L210.575 400.141H213.179L213.118 402.786ZM221.403 430L211.498 402.786L211.436 400.141H214.041L225.464 430H221.403ZM220.89 418.946V422.187H204.115V418.946H220.89Z" fill="white"/>
<path d="M248.621 426.78V430H233.691V426.78H248.621ZM234.471 400.141V430H230.513V400.141H234.471Z" fill="white"/>
<path d="M265.667 402.786L255.782 430H251.742L263.124 400.141H265.729L265.667 402.786ZM273.952 430L264.047 402.786L263.985 400.141H266.59L278.013 430H273.952ZM273.439 418.946V422.187H256.664V418.946H273.439Z" fill="white"/>
<path d="M306.03 400.141V430H302.052L287.02 406.97V430H283.062V400.141H287.02L302.113 423.232V400.141H306.03Z" fill="white"/>
<path d="M344.532 426.78V430H328.72V426.78H344.532ZM329.52 400.141V430H325.562V400.141H329.52ZM342.44 412.979V416.198H328.72V412.979H342.44ZM344.327 400.141V403.381H328.72V400.141H344.327Z" fill="white"/>
<path d="M368.592 426.78V430H353.662V426.78H368.592ZM354.441 400.141V430H350.483V400.141H354.441Z" fill="white"/>
<path d="M393.144 426.78V430H377.332V426.78H393.144ZM378.132 400.141V430H374.174V400.141H378.132ZM391.052 412.979V416.198H377.332V412.979H391.052ZM392.939 400.141V403.381H377.332V400.141H392.939Z" fill="white"/>
<path d="M403.053 400.141V430H399.095V400.141H403.053ZM421.079 400.141L408.672 414.065L401.699 421.305L401.043 417.08L406.293 411.297L416.322 400.141H421.079ZM417.265 430L406.211 415.439L408.57 412.302L421.982 430H417.265Z" fill="white"/>
<path d="M437.551 400.141V430H433.655V400.141H437.551ZM447.149 400.141V403.381H424.078V400.141H447.149Z" fill="white"/>
<path d="M452.629 400.141H462.513C464.755 400.141 466.649 400.482 468.194 401.166C469.753 401.85 470.935 402.861 471.742 404.201C472.562 405.527 472.972 407.161 472.972 409.103C472.972 410.47 472.692 411.721 472.131 412.855C471.585 413.977 470.792 414.934 469.753 415.727C468.727 416.506 467.497 417.087 466.061 417.47L464.954 417.9H455.664L455.623 414.681H462.636C464.058 414.681 465.241 414.435 466.184 413.942C467.128 413.437 467.839 412.76 468.317 411.912C468.796 411.064 469.035 410.128 469.035 409.103C469.035 407.954 468.809 406.949 468.358 406.088C467.907 405.227 467.196 404.563 466.225 404.099C465.268 403.62 464.031 403.381 462.513 403.381H456.587V430H452.629V400.141ZM470.081 430L462.821 416.465L466.943 416.444L474.305 429.754V430H470.081Z" fill="white"/>
<path d="M502.549 414.127V416.014C502.549 418.256 502.268 420.266 501.708 422.043C501.147 423.82 500.341 425.331 499.288 426.575C498.235 427.819 496.971 428.77 495.494 429.426C494.031 430.082 492.39 430.41 490.572 430.41C488.808 430.41 487.188 430.082 485.712 429.426C484.249 428.77 482.977 427.819 481.897 426.575C480.831 425.331 480.004 423.82 479.416 422.043C478.828 420.266 478.534 418.256 478.534 416.014V414.127C478.534 411.885 478.821 409.882 479.395 408.118C479.983 406.341 480.81 404.83 481.877 403.586C482.943 402.328 484.208 401.371 485.671 400.715C487.147 400.059 488.767 399.73 490.531 399.73C492.349 399.73 493.99 400.059 495.453 400.715C496.93 401.371 498.194 402.328 499.247 403.586C500.313 404.83 501.127 406.341 501.687 408.118C502.262 409.882 502.549 411.885 502.549 414.127ZM498.632 416.014V414.086C498.632 412.309 498.447 410.736 498.078 409.369C497.722 408.002 497.196 406.854 496.499 405.924C495.802 404.994 494.947 404.29 493.935 403.812C492.937 403.333 491.803 403.094 490.531 403.094C489.301 403.094 488.186 403.333 487.188 403.812C486.204 404.29 485.356 404.994 484.645 405.924C483.948 406.854 483.408 408.002 483.025 409.369C482.642 410.736 482.451 412.309 482.451 414.086V416.014C482.451 417.805 482.642 419.391 483.025 420.771C483.408 422.139 483.955 423.294 484.666 424.237C485.39 425.167 486.245 425.871 487.229 426.35C488.227 426.828 489.342 427.067 490.572 427.067C491.857 427.067 492.999 426.828 493.997 426.35C494.995 425.871 495.836 425.167 496.519 424.237C497.217 423.294 497.743 422.139 498.098 420.771C498.454 419.391 498.632 417.805 498.632 416.014Z" fill="white"/>
<path d="M532.494 400.141V430H528.516L513.483 406.97V430H509.525V400.141H513.483L528.577 423.232V400.141H532.494Z" fill="white"/>
<path d="M544.803 400.141V430H540.845V400.141H544.803Z" fill="white"/>
<path d="M557.009 400.141V430H553.051V400.141H557.009ZM575.036 400.141L562.628 414.065L555.656 421.305L554.999 417.08L560.249 411.297L570.278 400.141H575.036ZM571.221 430L560.167 415.439L562.526 412.302L575.938 430H571.221Z" fill="white"/>
<path d="M207.458 471.453C207.458 470.756 207.348 470.141 207.13 469.607C206.924 469.061 206.555 468.568 206.022 468.131C205.503 467.693 204.778 467.276 203.848 466.88C202.932 466.483 201.77 466.08 200.362 465.67C198.885 465.232 197.552 464.747 196.363 464.214C195.173 463.667 194.155 463.045 193.307 462.348C192.46 461.65 191.81 460.851 191.359 459.948C190.908 459.046 190.682 458.014 190.682 456.852C190.682 455.689 190.922 454.616 191.4 453.632C191.879 452.647 192.562 451.793 193.451 451.068C194.353 450.33 195.426 449.756 196.671 449.346C197.915 448.936 199.302 448.73 200.834 448.73C203.076 448.73 204.976 449.161 206.535 450.022C208.107 450.87 209.303 451.984 210.124 453.365C210.944 454.732 211.354 456.195 211.354 457.754H207.417C207.417 456.633 207.177 455.642 206.699 454.78C206.22 453.905 205.496 453.222 204.525 452.729C203.554 452.224 202.324 451.971 200.834 451.971C199.425 451.971 198.263 452.183 197.347 452.606C196.431 453.03 195.748 453.604 195.297 454.329C194.859 455.054 194.64 455.881 194.64 456.811C194.64 457.439 194.77 458.014 195.03 458.533C195.303 459.039 195.72 459.511 196.281 459.948C196.855 460.386 197.58 460.789 198.455 461.158C199.343 461.527 200.403 461.883 201.633 462.225C203.329 462.703 204.792 463.236 206.022 463.824C207.253 464.412 208.264 465.075 209.057 465.813C209.864 466.538 210.459 467.365 210.841 468.295C211.238 469.211 211.436 470.25 211.436 471.412C211.436 472.629 211.19 473.729 210.698 474.714C210.206 475.698 209.502 476.539 208.586 477.236C207.67 477.934 206.569 478.474 205.284 478.856C204.012 479.226 202.59 479.41 201.018 479.41C199.637 479.41 198.277 479.219 196.937 478.836C195.611 478.453 194.401 477.879 193.307 477.113C192.227 476.348 191.359 475.404 190.703 474.283C190.06 473.148 189.739 471.836 189.739 470.346H193.676C193.676 471.371 193.875 472.253 194.271 472.991C194.668 473.716 195.208 474.317 195.891 474.796C196.589 475.274 197.375 475.63 198.25 475.862C199.138 476.081 200.061 476.19 201.018 476.19C202.399 476.19 203.568 475.999 204.525 475.616C205.482 475.233 206.207 474.687 206.699 473.976C207.205 473.265 207.458 472.424 207.458 471.453Z" fill="white"/>
<path d="M236.501 475.78V479H220.689V475.78H236.501ZM221.489 449.141V479H217.531V449.141H221.489ZM234.409 461.979V465.198H220.689V461.979H234.409ZM236.296 449.141V452.381H220.689V449.141H236.296Z" fill="white"/>
<path d="M243.703 449.141H247.538L257.32 473.483L267.082 449.141H270.938L258.797 479H255.803L243.703 449.141ZM242.452 449.141H245.836L246.39 467.352V479H242.452V449.141ZM268.784 449.141H272.168V479H268.23V467.352L268.784 449.141Z" fill="white"/>
<path d="M299.14 475.78V479H283.328V475.78H299.14ZM284.128 449.141V479H280.17V449.141H284.128ZM297.048 461.979V465.198H283.328V461.979H297.048ZM298.935 449.141V452.381H283.328V449.141H298.935Z" fill="white"/>
<path d="M328.06 449.141V479H324.081L309.049 455.97V479H305.091V449.141H309.049L324.143 472.232V449.141H328.06Z" fill="white"/>
<path d="M358.235 465.034H350.668L350.627 461.855H357.497C358.632 461.855 359.623 461.664 360.471 461.281C361.318 460.898 361.974 460.352 362.439 459.641C362.918 458.916 363.157 458.055 363.157 457.057C363.157 455.963 362.945 455.074 362.521 454.391C362.111 453.693 361.475 453.188 360.614 452.873C359.766 452.545 358.686 452.381 357.374 452.381H351.55V479H347.592V449.141H357.374C358.905 449.141 360.272 449.298 361.475 449.612C362.679 449.913 363.697 450.392 364.531 451.048C365.379 451.69 366.021 452.511 366.459 453.509C366.896 454.507 367.115 455.703 367.115 457.098C367.115 458.328 366.801 459.442 366.172 460.44C365.543 461.425 364.668 462.231 363.547 462.86C362.439 463.489 361.14 463.893 359.65 464.07L358.235 465.034ZM358.051 479H349.109L351.345 475.78H358.051C359.308 475.78 360.375 475.562 361.25 475.124C362.139 474.687 362.815 474.071 363.28 473.278C363.745 472.472 363.977 471.521 363.977 470.428C363.977 469.32 363.779 468.363 363.383 467.557C362.986 466.75 362.364 466.128 361.516 465.69C360.669 465.253 359.575 465.034 358.235 465.034H352.596L352.637 461.855H360.348L361.188 463.004C362.624 463.127 363.841 463.537 364.839 464.234C365.837 464.918 366.596 465.793 367.115 466.859C367.648 467.926 367.915 469.102 367.915 470.387C367.915 472.246 367.505 473.818 366.684 475.104C365.878 476.375 364.736 477.346 363.26 478.016C361.783 478.672 360.047 479 358.051 479Z" fill="white"/>
<path d="M393.779 475.78V479H377.968V475.78H393.779ZM378.768 449.141V479H374.81V449.141H378.768ZM391.688 461.979V465.198H377.968V461.979H391.688ZM393.574 449.141V452.381H377.968V449.141H393.574Z" fill="white"/>
<path d="M403.689 449.141V479H399.731V449.141H403.689ZM421.715 449.141L409.308 463.065L402.335 470.305L401.679 466.08L406.929 460.297L416.957 449.141H421.715ZM417.901 479L406.847 464.439L409.205 461.302L422.617 479H417.901Z" fill="white"/>
<path d="M444.237 449.141H448.174V469.341C448.174 471.583 447.675 473.449 446.677 474.939C445.679 476.43 444.353 477.551 442.699 478.303C441.058 479.041 439.274 479.41 437.346 479.41C435.323 479.41 433.491 479.041 431.85 478.303C430.223 477.551 428.931 476.43 427.974 474.939C427.031 473.449 426.559 471.583 426.559 469.341V449.141H430.476V469.341C430.476 470.899 430.763 472.185 431.337 473.196C431.912 474.208 432.711 474.96 433.737 475.452C434.776 475.944 435.979 476.19 437.346 476.19C438.727 476.19 439.93 475.944 440.955 475.452C441.995 474.96 442.801 474.208 443.375 473.196C443.95 472.185 444.237 470.899 444.237 469.341V449.141Z" fill="white"/>
<defs>
<linearGradient id="paint0_linear_14_27" x1="509.07" y1="561.255" x2="115.02" y2="67.095" gradientUnits="userSpaceOnUse">
<stop stop-color="#2CB5C2"/>
<stop offset="1" stop-color="#1ACADC" stop-opacity="0.96"/>
</linearGradient>
</defs>
</svg>
